<svg width="240" height="200" viewBox="0 0 63.5 52.917" xml:space="preserve" xmlns="http://www.w3.org/2000/svg">
  <g style="display:inline">
    <path style="display:inline;fill:#000;fill-opacity:1;stroke:#000;stroke-width:.529167;stroke-dasharray:none;stroke-opacity:1" d="M14.262 37.561c2.159-.615 4.25.456 5.98.264 1.476-1.668 4.564-6.164 7.129-6.725 1.782.329 7.05.856 11.148-1.313 3.917 1.877 6.727 6.374 9.131 7.502 2.45 1.274 5.647-1.104 8.057 0 2.771 2.43-1.453 3.174-2.182 5.488-2.14.405-3.585 1.191-5.009-.184-.093-.725-1.224-1.958-1.898-2.783-1.072-1.311-2.826-2.19-4.006-3.083-3.665 2.279-14.363.574-15.514.198-1.913-.787-.466-1.237-.365-2.406-1.352-.05-3.487 3.73-4.637 5.692-1.637 1.507-5.259 3.77-7.915 1.69-.028-1.304.08-3.203.08-4.34z"/>
    <path style="display:inline;fill:#fff;fill-opacity:1;stroke:#000;stroke-width:.529167;stroke-dasharray:none;stroke-opacity:1" d="M22.768 39.58c-1.509 1.266-1.737 4.695-.295 5.9.599.5 1.503.574 2.387.394 2.483-3.246.414-5.631-2.092-6.294z"/>
    <path style="display:inline;fill:#000;fill-opacity:1;stroke:#000;stroke-width:.529167;stroke-dasharray:none;stroke-opacity:1" d="M12.517 44.724c1.927-1.158 11.476-.607 13.692-.607l-.796-1.428c-2.216 0-10.758-1.088-12.685.07z"/>
    <path style="display:inline;fill:#fff;fill-opacity:1;stroke:#000;stroke-width:.529167;stroke-dasharray:none;stroke-opacity:1" d="M43.57 46.128c.746.18 1.489.139 2.073-.257 1.694-1.148 2.175-4.404.975-6.061-.22-.303-.53-.45-.892-.515-6.137 1.504-4.445 4.87-2.157 6.833z"/>
    <path style="display:inline;fill:#000;fill-opacity:1;stroke:#000;stroke-width:.529167;stroke-dasharray:none;stroke-opacity:1" d="M52.199 45.02c-1.928-1.157-8.515-1.036-10.731-1.036l.796-1.427c2.216 0 8.803-.122 10.73 1.036z"/>
    <path style="display:inline;fill:#fff;fill-opacity:1;stroke:#000;stroke-width:.529167;stroke-dasharray:none;stroke-opacity:1" d="M26.373 35.44c-.65.718-1.228 3.22-.976 4.469-.764-.532-3.38-.596-2.587-.35 2.02 1.869 1.975 5.032 2.03 6.319.94-.096 1.834-.648 2.345-1.188 2.21.964 4.772 1.774 7.266 1.79 2.331.014 4.216-.568 6.81-1.59.642.571 1.504 1.055 2.356 1.249-.709-1.362-.692-4.777 2.18-6.83-.68-.146-1.558.028-2.34 0-.17-1.394-.965-3.443-2.105-3.8-1.22 2.693-12.606 2.544-14.979-.068zm25.67 10.105c-.511-3.41-.389-9.551 1.625-11.466.944-.897 4.479-.42 5.526 1.09 2.106 3.035.788 10.305-.675 12.662-1.318 2.123-6.104.199-6.476-2.286z"/>
    <path style="display:inline;fill:none;stroke:#000;stroke-width:.529167;stroke-dasharray:none;stroke-opacity:1" d="M53.83 47.871c-.73-3.165.148-7.882.877-10.453.578-2.04 1.716-2.508 4.487-2.25"/>
    <path style="display:inline;fill:none;fill-opacity:1;stroke:#000;stroke-width:.529167;stroke-dasharray:none;stroke-opacity:1" d="M29.864 40.928c1.04 0 1.917-.94 1.617-1.63-.636-1.467-2.439-.963-2.81.035-.364.98.529 1.595 1.193 1.595zm7.396.132c.8 0 2.017-.99 1.718-1.68-.637-1.469-3.012-.794-3.359.274-.222.685.764 1.406 1.64 1.406z"/>
    <path style="display:inline;fill:#000;fill-opacity:1;stroke:#000;stroke-width:.529167;stroke-dasharray:none;stroke-opacity:1" d="M27.37 31.1c-3.462-.413-5.182-3.417-5.37-6.867-2.874.626-6.769-3.04-3.798-7.246 2.624-3.714 5.978-1.135 6.976.665 1.804-1.343 3.637-2.544 5.632-2.69-1.957-2.902-1.087-7.475 4.804-7.07 5.94.41 4.43 7.063 1.508 8.446-1.29 5.98-1.118 12.608-.814 15.412-2.17.078-7.514.346-8.937-.65z"/>
    <path style="display:inline;fill:#fff;fill-opacity:1;stroke:none;stroke-width:.529167;stroke-dasharray:none;stroke-opacity:1" d="M26.745 18.873c.137-1.757 1.65-2.937 3.293-3.018 1.591-.078 3.03 1.203 3.738 2.187.007-1.601.194-2.275 2.237-2.127 1.004.073 2.475 1.281 3.464 3.106.352.649.294 1.636.137 1.945.914-.103 2.281 1.16 2.32 2.256.065 1.874-2.899 3.355-4.323 3.934.773.027 1.757-.183 1.921.496.237.984-.29 1.742-1.013 2.135-1.46.792-4.3 1.238-6.018 1.45-1.215.152-5.13-.137-5.445-.801-.956-2.017 1.8-3.528 3.335-4.257-1.45-.683-3.903-4.025-3.646-7.306"/>
    <path style="display:inline;fill:none;fill-opacity:.439528;stroke:#000;stroke-width:.529167;stroke-dasharray:none;stroke-opacity:1" d="M35.91 24.179c-.091-.181-.308-.806.094-1.378.499-.711 1.938-1.84 3.864-1.831.901.004 2.03 1.254 2.065 2.252.066 1.874-2.807 3.467-4.322 3.934.773.027 1.757-.183 1.921.496.237.984-.153 1.978-.875 2.37"/>
    <path style="display:inline;fill:none;fill-opacity:.439528;stroke:#000;stroke-width:.529167;stroke-dasharray:none;stroke-opacity:1" d="M36.862 15.852c.334.049 1.458 1.201 1.99 2.055.739 1.185 1.184 2.373.798 3.124"/>
    <path style="display:inline;fill:#000;fill-opacity:1;stroke:#000;stroke-width:.529167;stroke-dasharray:none;stroke-opacity:1" d="M32.479 22.073c-.375-1.47-.31-2.074.313-2.212.61-.134 1.218.625 1.404 1.794.178 1.116.131 2.085-.508 2.21-.545.106-.835-.324-1.21-1.792zm3.257-1.275c-.375-1.47-.356-1.947.268-2.085.61-.134 1.065.506 1.251 1.675.062.387.13.749.168 1.062-.209.277-.587.546-1.023.898-.242-.243-.453-.723-.664-1.55zm1.962 1.727c1.334-.724 2.476-1.22 2.503-.583.027.621-1.036 1.917-2.123 2.384-1.039.447-1.89.441-2.167-.147-.237-.503.456-.93 1.787-1.654zm-.088 4.631c.174-.062 1.274 1.026.972 1.137-.93.34-2.811 1.065-3.625 1.415-1.04.446-1.99.699-2.267.11-.205-.435.196-.927 1.005-1.249 1.241-.494 2.4-.872 3.916-1.413z"/>
    <path style="display:inline;fill:#fff;fill-opacity:1;stroke:#000;stroke-width:.529167;stroke-dasharray:none;stroke-opacity:1" d="M13.245 44.101c1.242-3.216 2.461-9.237.913-11.544-.726-1.082-4.28-1.386-5.63-.141C5.811 34.919 5.512 42.3 6.427 44.92c.823 2.359 5.913 1.524 6.818-.82z"/>
    <path style="display:inline;fill:none;stroke:#000;stroke-width:.529167;stroke-dasharray:none;stroke-opacity:1" d="M10.994 45.982c1.402-2.93 1.573-7.725 1.423-10.393-.12-2.116-1.128-2.822-3.889-3.173"/>
  </g>
</svg>
