<svg width="200" height="200" viewBox="0 0 52.917 52.917" xml:space="preserve" xmlns="http://www.w3.org/2000/svg">
  <g style="display:inline">
    <path style="display:inline;fill:#000;fill-opacity:1;stroke:#000;stroke-width:.529167;stroke-dasharray:none;stroke-opacity:1" d="M25.126 42.06c-3.463-.412-5.183-3.593-5.37-7.044-2.875.627-6.77-3.04-3.799-7.245 2.624-3.715 5.978-1.136 6.977.665 1.803-1.344 3.636-2.545 5.631-2.69-1.957-2.903-1.087-7.476 4.804-7.07 5.94.41 4.43 7.063 1.509 8.445-1.29 5.98-1.135 12.136-.831 14.94z"/>
    <path style="display:inline;fill:#fff;fill-opacity:1;stroke:none;stroke-width:.529167;stroke-dasharray:none;stroke-opacity:1" d="M24.5 29.657c.137-1.757 1.65-2.938 3.293-3.018 1.591-.078 3.03 1.203 3.738 2.186.006-1.6.194-2.275 2.237-2.126 1.004.073 2.475 1.28 3.464 3.105.352.65.294 1.637.137 1.945.915-.102 2.281 1.16 2.32 2.257.065 1.874-2.899 3.355-4.323 3.933.773.028 1.758-.182 1.921.497.238.983-.29 1.742-1.013 2.134-1.46.793-4.3 1.238-6.018 1.451-1.215.151-5.13-.137-5.445-.801-.956-2.018 1.8-3.529 3.335-4.258-1.449-.682-3.903-4.025-3.646-7.305"/>
    <path style="display:inline;fill:none;fill-opacity:.439528;stroke:#000;stroke-width:.529167;stroke-dasharray:none;stroke-opacity:1" d="M33.666 34.962c-.092-.18-.309-.805.093-1.378.499-.71 1.938-1.84 3.864-1.83.901.003 2.03 1.254 2.066 2.252.065 1.874-2.808 3.467-4.323 3.933.773.028 1.758-.182 1.921.497.208.859-.01 1.797-.617 2.193-1.062.693-2.293.914-2.938 1.075"/>
    <path style="display:inline;fill:none;fill-opacity:.439528;stroke:#000;stroke-width:.529167;stroke-dasharray:none;stroke-opacity:1" d="M34.617 26.635c.334.05 1.458 1.202 1.99 2.055.739 1.186 1.184 2.373.798 3.124"/>
    <path style="display:inline;fill:#000;fill-opacity:1;stroke:#000;stroke-width:.529167;stroke-dasharray:none;stroke-opacity:1" d="M30.234 32.857c-.375-1.471-.31-2.074.313-2.212.61-.135 1.218.625 1.404 1.793.178 1.117.131 2.086-.507 2.21-.546.107-.836-.324-1.21-1.791zm3.257-1.275c-.375-1.47-.356-1.947.268-2.085.61-.135 1.065.506 1.251 1.675.062.387.13.749.168 1.061-.209.278-.587.547-1.023.898-.242-.242-.453-.722-.664-1.549zm1.962 1.728c1.334-.725 2.476-1.222 2.504-.584.026.621-1.037 1.917-2.124 2.384-1.039.446-1.89.441-2.167-.148-.237-.502.456-.93 1.787-1.653zm-.087 4.63c.173-.062 1.273 1.026.97 1.137-.929.34-2.81 1.064-3.624 1.414-1.04.447-1.989.7-2.267.11-.205-.434.197-.926 1.005-1.248 1.241-.495 2.4-.873 3.916-1.414z"/>
  </g>
</svg>
