<svg width="200" height="200" viewBox="0 0 52.917 52.917" xmlns="http://www.w3.org/2000/svg">
  <path style="fill:none;stroke:#000;stroke-width:2.11666664;stroke-dasharray:none;stroke-opacity:1" d="m4.311 41.816 17.784 9.851 18.153-8.637"/>
  <path style="fill:#efb614;fill-opacity:1;stroke:#000;stroke-width:.79375;stroke-dasharray:none;stroke-opacity:1" d="M51.986 16.648c-11.26-.294-15.696 2.578-19.724 5.35-2.2-6.56.536-11.815 2.603-20.177-5.946 6.558-14.862 8.52-14.862 18.463C15.896 9.951 10.187 10.602 1.1 5.731c5.91 7.96 11.529 15.968 9.919 23.166l25.711 5.986c1.934-7.253 3.974-13.79 15.257-18.235z"/>
  <path style="fill:none;stroke:#000;stroke-width:2.11666664;stroke-dasharray:none;stroke-opacity:1" d="m10.427 29.34 26.487 6.17"/>
  <path style="fill:none;stroke:#000;stroke-width:.79374999;stroke-dasharray:none;stroke-opacity:1" d="m18.2 45.694 6.155-2.82-11.572-4.898 14.594.071"/>
</svg>
