<svg width="300" height="400" viewBox="0 0 79.375 105.833" xml:space="preserve" xmlns="http://www.w3.org/2000/svg">
  <path d="M-530.726 1909.727H1c3.615-3.43 8.46-4.129 7.393-11.254 6.371-3.59 13.404-7.302 20.14-11.493 2.102-1.308 3.885-3.669 5-5.947 29.928-61.163 59.75-122.377 89.589-183.584 11.38-23.346 22.738-46.704 34.154-70.033 1.425-2.91 2.392-5.448 1.675-9.086-.924-4.69.346-9.77-.122-14.604-.7-7.224-2.027-14.406-8.404-20.689l10.003-.91v-45.187h22.189c8.202 0 7.971-.094 10.984-7.715 20.208-51.111 32.071-104.613 45.36-157.709 8.85-35.354 17.975-70.642 26.491-106.076 2.574-10.71.623-21.54-3.842-31.587-1.022-2.3-4.384-3.509-6.525-5.384-.924-.808-2.186-2.114-2.08-3.057.413-3.687 1.311-7.319 2.139-11.527h21.724c2.709-18.204 5.691-35.911 7.925-53.713 5.41-43.12 10.993-86.23 15.502-129.45 3.37-32.298 5.288-64.752 7.643-97.152 3.032-41.709 6.067-83.419 8.698-125.154 2.097-33.257 3.651-66.55 5.34-99.832 2.603-51.256 5.197-102.514 7.64-153.778 2.213-46.44 4.43-92.88 6.245-139.336 1.379-35.3 2.461-70.62 2.992-105.941.205-13.695-2.473-27.22-9.26-39.455-2.469-4.449-5.21-9.027-11.936-9.925l1.969-27.632c4.306-.535 8.28-.997 12.225-1.64.153-.025.02-1.797.02-2.992l-5.016-.505v-16.5l5.116-2.78-5.766-2.834v-14.339h9.506c3.748-10.25 8.187-19.714 16.465-26.775.76-.648 1.384-1.603 2.256-1.949 6.089-2.413 9.133-6.475 7.864-13.282-.121-.648 1.422-1.47 1.739-2.37.433-1.233 1.058-3.016.514-3.876-3.378-5.34-3.37-11.843.165-17.826.495-.838.5-2.477.003-3.308-3.515-5.871-3.582-12.747-.172-17.785.543-.802.723-2.817.231-3.205-5.682-4.473-1.604-10.443-2.351-15.61-.29-2.002 2.118-4.261 2.725-6.554.931-3.52 1.896-7.166 1.929-10.767.184-19.831.089-39.665.09-59.499V2.537l-7.468-.714.775-5.945L367-.088v-7.164h4v5.676c3.116.245 6.316 1.64 6.423-3.36l1.15 6.674c-2.491.253-4.722.48-7.325.743-.126 1.496-.349 2.924-.35 4.352-.022 21.83-.211 43.665.173 65.488.065 3.703 2.83 7.3 3.949 11.065.682 2.297 1.043 4.873.76 7.23-.406 3.386 2.207 7.677-2.594 10.061-.333.166-.174 2.348.393 3.133 3.24 4.488 3.233 13.266.116 17.464-.636.857-.59 3.018.062 3.893 2.897 3.893 3.026 13.614.147 17.2-.679.846-.91 3.344-.683 3.435 4.5 1.811 1.956 5.689 2.692 8.556.38 1.478.609 3.716 1.599 4.204 12.038 5.937 18.529 16.317 23.235 28.22.49 1.237 1.01 2.462 1.677 4.08h9.505v14.43l-5.859 2.75 5.173 3.125v16.047l-4.744.711c-1.595 4.109 1.008 4.065 3.701 4.015 2.489-.046 4.98-.01 8.201-.01l1.846 26.23c-4.108 3.606-7.306 5.666-9.523 8.496-7.156 9.138-9.157 20.263-10.53 31.333-.979 7.883-1.136 15.944-.847 23.896 2.515 69.1 4.869 138.207 7.948 207.283 3.45 77.396 7.226 154.783 11.58 232.133 3.388 60.206 7.568 120.373 11.983 180.515 3.267 44.514 6.693 89.044 11.497 133.41 4.37 40.37 10.684 80.53 16.17 120.779.785 5.764 1.728 11.506 2.668 17.72h21.765c.8 4.3 1.652 8.091 2.11 11.93.101.859-1.095 2.628-1.831 2.708-4.388.477-6.466 3.484-7.616 7.031-3.408 10.516-5.413 21.192-2.619 32.268 15.998 63.402 31.426 126.955 48.19 190.154 6.81 25.674 16.543 50.57 24.808 75.863.935 2.861 2.542 3.343 5.155 3.31 8.788-.115 17.579-.045 26.35-.045v45.114l9.617.91c-7.02 9.285-10.49 25.411-7.398 33.941l-3.177 1.832c10.953 22.49 21.795 44.781 32.662 67.06 31.6 64.78 63.224 129.55 94.784 194.35 1.82 3.735 4.177 6.16 8.19 8.005 6.148 2.829 11.658 7.049 17.44 10.679-1.46 6.601 3.563 7.286 7.31 10.83h531.768m-683.18-12.442c3.253-3.66 4.53-7.872 4.538-12.656.045-31.033-10.353-59.001-24.88-85.832-30.874-57.019-103.08-107.442-175.69-112.407-60.707-4.151-114.575 11.485-162.117 49.315-41.511 33.03-68.164 75.205-77.648 127.593-2.101 11.604-5.348 23.942 3.332 34.843m171.385-578.29c-11.922 72.733-22.662 145.119-38.175 216.77h165.208l-38.561-216.77z" style="display:inline;fill:none;fill-opacity:1;stroke:#000;stroke-width:17.9943;stroke-dasharray:none;stroke-opacity:1" transform="translate(23.411 21.197)scale(.04411)"/>
</svg>
