<svg width="400" height="900" viewBox="0 0 105.833 238.125" xml:space="preserve" xmlns="http://www.w3.org/2000/svg">
  <path style="fill:none;stroke:#000;stroke-width:.79375;stroke-dasharray:none;stroke-opacity:1" d="m0 237.734 23.546-.002-.013-7.204 5.565.053.174-2.304h2.751l.07-2.13 3.04-.016.375-27.762 2.413-.495.38-28.482 2.265-.904.338-32.456c-.127-1.116 1.73-1.695 2.822-2.24l.132-38.595c-.013-2.601 1.305-3.177 2.507-4.17l.299-10.208c-.052-.749.116-1.01.533-1.216l.025-9.53c.093-.614.412-1.495 1.206-2.056l.215-12.304c.023-1.349-.34-3.351.774-4.757l.095-10.929c.041-1.135.355-2.176.889-2.677l.035-7.021.375-.043.13-11.445.36-.363.05 11.555-.035 2.486.424.105-.029 8.15c.268.3.21.845.102 1.428l.074 4.907c.864.18.82 1.489.74 2.177l.176 11.678c.37-.01.452.53.455 1.53l.029 10.24c1.188 1.01 1.072 1.18.984 2.25l-.074 14.152c.57.009.649.331.707.666l.276 17.397c.723.497 1.956 1.066 2.017 2.172l-.285 35.981c1.81.397 2.819.575 2.764 1.815l-.097 31.225 2.155.581-.177 26.585 2.52.258-.088 20.338 2.872.063.008 2.297 2.86-.033.096 2.35 6.056.008.018 6.89 29.934.024"/>
</svg>
