<svg width="240" height="400" viewBox="0 0 63.5 105.833" xml:space="preserve" xmlns="http://www.w3.org/2000/svg">
  <path style="fill:none;stroke:#000;stroke-width:.79375;stroke-dasharray:none" d="m23.208 72.817 8.716 16.144m-8.78-2.3 8.726 16.65m-8.596-44.536 8.706 15.074m-8.643-28.705 8.658 13.782m-8.59-28.036 8.69 12.294m.054-34.568-.28 94.695M23.405 30.89l-.34 74.547H0m42.521-46.511-.199 46.51H63.5M31.924 88.96l10.417 11.534m-10.36-26.646 10.406 12.809M31.995 58.926l10.546 13.639M32.066 50.898l10.455 8.028m-10.526 0h10.526M32.138 27.763l-8.8 17.38m8.757-1.96-8.821 15.592m8.721.15-8.787 13.892m8.772 1.032-8.837 12.812m8.78 2.3L23.31 99.664m19.078-13.006L31.87 103.31m10.67-30.745L31.924 88.96M42.52 58.926 31.98 73.849m.157-46.086-8.734 3.127m8.697-6.054-8.697 6.054M29.69 9.96l.063 16.511"/>
</svg>
