<svg width="360" height="100" viewBox="0 0 95.25 26.458" xml:space="preserve" xmlns="http://www.w3.org/2000/svg">
  <path style="fill:none;stroke:#000;stroke-width:.79375;stroke-dasharray:none;stroke-opacity:1" d="m95.25 26.062-22.276-.003-5.548-1.49-24.003-.013-3.342-.933-4.416-.162-3.348-1.053-3.18-.01-2.62.929-.023 1.517-1.488-.08-.01 1.294L0 26.062m35.87-8.568c-2.54-1.901-6.24-2.219-10.277-2.079 1.08 1.873 2.29 3.639 2.613 6.211m1.68-1.027c-.883 1.057-3.142 1.45-4.725 1.85l1.355.878m-.923-7.912c1.523 1.575 4.517 4.414 4.84 6.987m8.145-14.301c4.007 3.404 5.883 10.15 5.557 16.456M32.69 12.135c1.663 2.127 4.32 6.919 5.225 11.408m5.327-7.43c-2.54-1.9-6.416-3.742-10.552-3.978.925 2.006 1.48 3.02 1.661 4.461m20.181 2.115C53.176 13.165 46.798 7.065 38.578 8.1c1.081 1.872 1.528 3.684 1.85 6.257M59.67 24.565c.186-2.627.847-5.511 1.826-7.618-5.57-1.471-9.45 3.55-10.362 7.614m11.74-4.916c1.443 1.149 2.41 3.706 2.649 4.923m5.269.906c.091-3.548-3.597-6.608-7.918-5.829.9 1.719 1.266 3.738 1.306 4.923m6.612.906c1.03-2.275 2.571-4.464 4.513-5.698-1.863-.853-4.958-1.45-7.289.831"/>
</svg>
