<svg width="350" height="200" viewBox="0 0 92.604 52.917" xml:space="preserve" xmlns="http://www.w3.org/2000/svg">
  <path style="fill:none;stroke:#000;stroke-width:.79375;stroke-dasharray:none;stroke-opacity:1" d="m32.706 52.982.073-40.783-1.168-.035.055-1.32 14.274.034.041 1.283-1.316.05 2.582 40.77m45.357-.47-6.339.007-.07-40.286-1.202-.064.026-1.274c2.898.15 4.986.232 4.391-4.485l-1.916-1.79-6.982-.089-.005-2.019-5.434-.094.043 2.188-47.224-.05.253-3.207-6.915-.005-.097 3.117c-5.459.594-8.395 1.273-11.032 1.867L3.268 6.32c.658 2.29 9.134 4.305 16.19 4.305l.133 1.974-1.782-.054 2.953 40.437m-1.838-25.43-1.54 24.946L0 52.514m59.323.604.073-40.782-1.168-.035.055-1.32 14.274.033.041 1.284-1.316.05 2.582 40.77M45.636 27.531l-1.53 25.43m28.15-25.228-1.53 25.43"/>
</svg>
